/* XPM */
static char *_726d282de7b4b5db8b42803a601b606[] = {
/* columns rows colors chars-per-pixel */
"30 30 2 1 ",
"  c None",
". c red",
/* pixels */
"                              ",
"              ..              ",
"              ..              ",
"              ..              ",
"              ..              ",
"          ..........          ",
"         ............         ",
"        ...   ..   ...        ",
"       ...    ..    ...       ",
"      ...     ..     ...      ",
"      ..              ..      ",
"     ..                ..     ",
"     ..                ..     ",
"     ..                ..     ",
" ..........        .......... ",
" ..........        .......... ",
"     ..                ..     ",
"     ..                ..     ",
"     ..                ..     ",
"      ..      ..      ..      ",
"      ...     ..     ...      ",
"       ...    ..    ...       ",
"        ...   ..   ...        ",
"         ............         ",
"          ..........          ",
"              ..              ",
"              ..              ",
"              ..              ",
"                              ",
"                              "
};
